<svg width="30" height="30" viewBox="0 0 30 30" fill="none" xmlns="http://www.w3.org/2000/svg">
<path d="M4.21066 25.1951C4.07785 25.1951 3.94661 25.1404 3.85131 25.0357C2.52171 23.5593 1.51394 21.8641 0.853064 20.0017C0.287461 18.3987 0 16.7175 0 15.002C0 13.2865 0.287481 11.6054 0.853064 10.0023C1.36083 8.56491 2.08578 7.215 3.0076 5.9902C3.9169 4.77936 5.00123 3.71691 6.22927 2.82949C8.77754 0.988974 11.7913 0.0109193 14.9459 0H15.0537C18.7472 0.0140615 22.2908 1.38115 25.0358 3.85131C25.2343 4.03098 25.2514 4.33563 25.0702 4.53562C24.8905 4.73404 24.5859 4.75123 24.3859 4.56999C21.8204 2.25923 18.5035 0.97803 15.0457 0.968671H15.0426H14.9973H14.952H14.9488C9.03364 0.987419 3.73399 4.7481 1.76372 10.3245C1.23407 11.8228 0.96533 13.3961 0.96533 15.0021C0.96533 16.6082 1.23406 18.1801 1.76372 19.6798C2.38088 21.4235 3.32453 23.0077 4.56821 24.3903C4.74789 24.5887 4.7307 24.8934 4.53384 25.0746C4.44009 25.1543 4.32627 25.1951 4.21066 25.1951Z" fill="#171717"/>
<path d="M14.9992 29.9996H14.946C13.3196 29.9934 11.7197 29.7309 10.1932 29.2122C8.71514 28.7122 7.32771 27.9857 6.06984 27.053C5.85423 26.8936 5.81048 26.5905 5.96984 26.3749C6.12921 26.1593 6.43229 26.1155 6.64792 26.2749C9.0634 28.0685 11.9368 29.0216 14.9538 29.0325H14.9569H15.0022H15.0475H15.0506C20.9658 29.0138 26.2655 25.2531 28.2358 19.6767C28.7654 18.1784 29.0342 16.605 29.0342 14.999C29.0342 13.393 28.7654 11.8211 28.2358 10.3213C27.7702 9.00734 27.1124 7.76839 26.2765 6.64346C26.1172 6.42785 26.1609 6.1263 26.3765 5.96539C26.5921 5.80602 26.8937 5.84977 27.0546 6.06538C27.9467 7.26842 28.6514 8.59021 29.1482 9.99636C29.7138 11.5994 30.0013 13.2805 30.0013 14.996C30.0013 16.71 29.7138 18.3927 29.1482 19.9957C28.6405 21.4331 27.9155 22.783 26.9937 24.0078C26.0844 25.2187 25.0001 26.2811 23.772 27.1685C21.2237 29.0091 18.21 29.9871 15.0554 29.998C15.0335 29.9996 15.0164 29.9996 14.9992 29.9996Z" fill="#171717"/>
<path d="M22.5267 18.8971C22.5048 18.8971 22.486 18.8955 22.4642 18.8939C22.1986 18.8611 22.0111 18.6158 22.0454 18.3533C22.1861 17.2628 22.2564 16.1363 22.2564 15.0035C22.2564 13.3724 22.1126 11.7756 21.8251 10.2539C21.3127 7.53528 20.3862 5.209 19.1456 3.52311C17.9285 1.8701 16.5115 0.987356 15.0443 0.970157H14.999H14.9537C13.6225 0.985781 12.3148 1.72791 11.1727 3.11221C10.0134 4.51836 9.08221 6.50419 8.48069 8.85544C8.41507 9.11479 8.15102 9.27105 7.89321 9.20541C7.63385 9.13979 7.47759 8.87575 7.54323 8.61793C8.18071 6.13058 9.17592 4.01184 10.4243 2.49794C11.7554 0.883963 13.3178 0.0199795 14.9428 0.0012207H15.0537C15.963 0.0137199 16.8536 0.285578 17.702 0.813647C18.5004 1.31205 19.2472 2.03077 19.9221 2.94631C20.5783 3.83689 21.1564 4.8993 21.6392 6.10858C22.1236 7.31942 22.5064 8.65373 22.7735 10.0708C23.0704 11.6504 23.2235 13.3081 23.2235 14.9985C23.2235 16.1718 23.1485 17.3421 23.0048 18.4701C22.9735 18.717 22.7657 18.8967 22.5267 18.8967L22.5267 18.8971Z" fill="#171717"/>
<path d="M14.9992 29.9996H14.9429C14.0336 29.9871 13.143 29.7152 12.2946 29.1872C11.4963 28.6888 10.7494 27.9701 10.0745 27.0545C9.41828 26.1639 8.8402 25.1015 8.35739 23.8922C7.87306 22.6814 7.49024 21.3471 7.2231 19.93C6.92469 18.3505 6.77313 16.6927 6.77313 15.0024C6.77313 13.829 6.84813 12.6587 6.99187 11.5307C7.02468 11.2651 7.26998 11.0776 7.53247 11.112C7.79808 11.1448 7.98556 11.3901 7.95121 11.6526C7.81215 12.7416 7.74184 13.8681 7.74184 15.0008C7.74184 16.6319 7.88559 18.2287 8.17306 19.7505C8.6855 22.4691 9.61204 24.7953 10.8526 26.4812C12.0697 28.1342 13.4899 29.017 14.9539 29.0342H14.9992H15.0445C16.3757 29.0186 17.6834 28.2764 18.8255 26.8921C19.9848 25.486 20.916 23.5002 21.5175 21.1489C21.5831 20.8895 21.8472 20.7333 22.105 20.7989C22.3644 20.8645 22.5206 21.1286 22.455 21.3864C21.8175 23.8738 20.8223 25.9925 19.5739 27.5064C18.2443 29.1188 16.6819 29.9812 15.057 30H14.9992L14.9992 29.9996Z" fill="#171717"/>
<path d="M14.9992 29.9996C14.732 29.9996 14.5148 29.7825 14.5148 29.5153V0.486037C14.5148 0.218866 14.732 0.00170898 14.9992 0.00170898C15.2663 0.00170898 15.4835 0.218882 15.4835 0.486037V29.5153C15.4835 29.7825 15.2663 29.9996 14.9992 29.9996Z" fill="#171717"/>
<path d="M20.8051 20.3222H1.31123C1.04406 20.3222 0.826904 20.105 0.826904 19.8378C0.826904 19.5707 1.04408 19.3535 1.31123 19.3535H20.8067C21.0739 19.3535 21.2911 19.5707 21.2911 19.8378C21.2895 20.1066 21.0739 20.3222 20.8051 20.3222Z" fill="#171717"/>
<path d="M28.6874 20.3222H23.7066C23.4394 20.3222 23.2222 20.105 23.2222 19.8378C23.2222 19.5707 23.4394 19.3535 23.7066 19.3535H28.6874C28.9546 19.3535 29.1718 19.5707 29.1718 19.8378C29.1718 20.1066 28.9546 20.3222 28.6874 20.3222Z" fill="#171717"/>
<path d="M6.29052 10.6444H1.30965C1.04248 10.6444 0.825317 10.4273 0.825317 10.1601C0.825317 9.89294 1.04249 9.67578 1.30965 9.67578H6.29052C6.55769 9.67578 6.77484 9.89296 6.77484 10.1601C6.77328 10.4288 6.55611 10.6444 6.29052 10.6444Z" fill="#171717"/>
<path d="M28.6874 10.6444H9.1935C8.92632 10.6444 8.70917 10.4273 8.70917 10.1601C8.70917 9.89294 8.92634 9.67578 9.1935 9.67578H28.689C28.9562 9.67578 29.1733 9.89296 29.1733 10.1601C29.1718 10.4288 28.9546 10.6444 28.6874 10.6444Z" fill="#171717"/>
<path d="M22.2567 21.7737C21.1911 21.7737 20.3209 20.905 20.3209 19.8379C20.3209 18.7723 21.1896 17.9021 22.2567 17.9021C23.3222 17.9021 24.1924 18.7708 24.1924 19.8379C24.1924 20.905 23.3253 21.7737 22.2567 21.7737ZM22.2567 18.8723C21.7239 18.8723 21.2895 19.3066 21.2895 19.8395C21.2895 20.3722 21.7238 20.8066 22.2567 20.8066C22.7895 20.8066 23.2238 20.3723 23.2238 19.8395C23.2238 19.3051 22.7895 18.8723 22.2567 18.8723Z" fill="#171717"/>
<path d="M7.74164 12.0975C6.67607 12.0975 5.80585 11.2288 5.80585 10.1617C5.80585 9.09461 6.67455 8.22595 7.74164 8.22595C8.80873 8.22595 9.67743 9.09465 9.67743 10.1617C9.67743 11.2289 8.80873 12.0975 7.74164 12.0975ZM7.74164 9.19461C7.20887 9.19461 6.7745 9.62894 6.7745 10.1617C6.7745 10.6945 7.20883 11.1289 7.74164 11.1289C8.27444 11.1289 8.70877 10.6945 8.70877 10.1617C8.70877 9.62742 8.27444 9.19461 7.74164 9.19461Z" fill="#171717"/>
<path d="M5.32178 27.5793C4.25621 27.5793 3.38599 26.7106 3.38599 25.6436C3.38599 24.578 4.25469 23.7078 5.32178 23.7078C6.38891 23.7078 7.25757 24.5765 7.25757 25.6436C7.25757 26.7106 6.39043 27.5793 5.32178 27.5793ZM5.32178 24.678C4.78901 24.678 4.35464 25.1123 4.35464 25.6451C4.35464 26.1779 4.78897 26.6122 5.32178 26.6122C5.85454 26.6122 6.28891 26.1779 6.28891 25.6451C6.28891 25.1108 5.85458 24.678 5.32178 24.678Z" fill="#171717"/>
<path d="M25.642 7.25916C24.5765 7.25916 23.7062 6.39045 23.7062 5.32337C23.7062 4.25624 24.5749 3.38757 25.642 3.38757C26.7076 3.38757 27.5778 4.25628 27.5778 5.32337C27.5778 6.39049 26.7107 7.25916 25.642 7.25916ZM25.642 4.35779C25.1093 4.35779 24.6749 4.79212 24.6749 5.32492C24.6749 5.85769 25.1092 6.29206 25.642 6.29206C26.1748 6.29206 26.6092 5.85773 26.6092 5.32492C26.6107 4.7906 26.178 4.35779 25.642 4.35779Z" fill="#171717"/>
</svg>
