<svg width="34" height="30" viewBox="0 0 34 30" fill="none" xmlns="http://www.w3.org/2000/svg">
<path d="M6.12004 21.359C6.52436 21.359 6.85265 21.6873 6.85265 22.0916C6.85265 22.2695 6.9982 22.4151 7.17611 22.4151C7.35401 22.4151 7.49956 22.2695 7.49956 22.0916C7.49956 21.4431 7.04836 20.8997 6.44347 20.7541V20.4016C6.44347 20.2237 6.29792 20.0781 6.12002 20.0781C5.94212 20.0781 5.79656 20.2237 5.79656 20.4016V20.7541C5.19172 20.9013 4.73886 21.4431 4.73886 22.0916C4.73886 22.8534 5.35828 23.4712 6.12 23.4712C6.52431 23.4712 6.85261 23.7995 6.85261 24.2054C6.85261 24.6097 6.5243 24.938 6.12 24.938C5.71568 24.938 5.38577 24.6097 5.38577 24.2054C5.38577 24.0275 5.24022 23.8819 5.06232 23.8819C4.88441 23.8819 4.73886 24.0275 4.73886 24.2054C4.73886 24.8539 5.19172 25.3973 5.79656 25.5429V25.8955C5.79656 26.0734 5.94212 26.2189 6.12002 26.2189C6.29792 26.2189 6.44347 26.0734 6.44347 25.8955V25.5429C7.04832 25.3957 7.49956 24.8539 7.49956 24.2054C7.49956 23.4437 6.88014 22.8243 6.12004 22.8243C5.71572 22.8243 5.38581 22.4959 5.38581 22.0916C5.38743 21.6873 5.71574 21.359 6.12004 21.359Z" fill="#171717"/>
<path d="M6.12002 18.8103C3.72809 18.8103 1.78107 20.7575 1.78107 23.1493C1.78107 25.541 3.72825 27.4882 6.12002 27.4882C8.51195 27.4882 10.459 25.541 10.459 23.1493C10.459 20.7557 8.5134 18.8103 6.12002 18.8103ZM6.12002 26.8403C4.08386 26.8403 2.42777 25.1842 2.42777 23.148C2.42777 21.1119 4.08386 19.4558 6.12002 19.4558C8.15618 19.4558 9.81227 21.1119 9.81227 23.148C9.81227 25.1842 8.15618 26.8403 6.12002 26.8403Z" fill="#171717"/>
<path d="M33.9696 13.2472C33.9632 13.2148 33.9535 13.1825 33.9421 13.1517L33.926 13.0984C33.9146 13.0579 33.9033 13.0191 33.8872 12.9819C33.8694 12.9383 33.8467 12.8978 33.8241 12.8574L33.8079 12.8267C33.7901 12.7927 33.7739 12.7588 33.7513 12.7264C33.6429 12.5647 33.5071 12.4272 33.347 12.3221C33.3179 12.3027 33.2871 12.2849 33.2564 12.2703L33.2128 12.2461C33.1723 12.2234 33.1319 12.2008 33.0947 12.1862C33.0559 12.1701 33.0171 12.1587 32.9766 12.1474L32.9265 12.1329C32.8893 12.1215 32.8537 12.1102 32.8181 12.1038C32.7308 12.086 32.6402 12.0763 32.5481 12.0746H32.5303H29.0564L29.058 0.323455C29.058 0.145554 28.9124 0 28.7345 0H24.0851C23.9072 0 23.7616 0.145554 23.7616 0.323455V5.49542H19.4355C19.2576 5.49542 19.112 5.64097 19.112 5.81887V10.9908H14.7859C14.608 10.9908 14.4625 11.1364 14.4625 11.3143V15.2168H10.1363C9.95845 15.2168 9.81289 15.3623 9.81289 15.5402V18.385C8.76003 17.5667 7.47433 17.1203 6.12064 17.1203C2.79555 17.1203 0.0899963 19.8244 0.0899963 23.1493C0.0899963 26.4742 2.79571 29.1783 6.12064 29.1783C8.99292 29.1783 11.4818 27.1049 12.0287 24.3185H19.677L16.5022 27.4932C16.2241 27.7698 16.072 28.1401 16.072 28.5315C16.072 28.9229 16.2241 29.2932 16.5022 29.5698C16.7788 29.848 17.1475 30 17.5405 30C17.9319 30 18.3006 29.848 18.5788 29.5698L23.8303 24.3183H28.7339C28.9118 24.3183 29.0574 24.1728 29.0574 23.9949L29.059 19.0895L31.0645 17.0841V21.1952C31.0645 22.0055 31.7227 22.6637 32.533 22.6637C33.3432 22.6637 34.0015 22.0055 34.0015 21.1952L33.9998 13.5391C33.9998 13.4453 33.9901 13.3483 33.9707 13.2464L33.9696 13.2472ZM24.4082 0.64682H28.411V12.0713H24.8756C24.7106 12.0713 24.5554 12.1053 24.4082 12.1554V0.64682ZM28.411 15.5839L24.4082 19.5867V14.9256C24.5554 14.9757 24.7106 15.0097 24.8756 15.0097H28.411V15.5839ZM14.4622 15.8637V23.6701H12.1252C12.1398 23.4987 12.1495 23.324 12.1495 23.1477C12.1495 21.5741 11.5479 20.0959 10.4594 18.9653V15.8633L14.4622 15.8637ZM6.12044 28.5319C3.15273 28.5319 0.736493 26.1174 0.736493 23.1497C0.736493 20.1819 3.15107 17.7674 6.12044 17.7674C7.54687 17.7674 8.89244 18.3205 9.90808 19.3216C10.9367 20.342 11.5027 21.7022 11.5027 23.1497C11.5027 23.423 11.4833 23.6898 11.4429 23.9486C11.058 26.5605 8.76935 28.5319 6.12044 28.5319ZM15.1093 15.5403V11.6379H19.112V23.6718L15.1093 23.6702V15.5403ZM19.7587 23.6705V6.14246H23.7615V12.5954C23.5432 12.8509 23.4073 13.1793 23.4073 13.5399C23.4073 13.9021 23.5432 14.2288 23.7615 14.486V20.2339L20.3232 23.6706L19.7587 23.6705ZM28.411 23.6705H24.4761L28.4094 19.7373L28.411 23.6705ZM33.3519 21.1961C33.3519 21.6489 32.9832 22.0176 32.5303 22.0176C32.0775 22.0176 31.7087 21.6489 31.7087 21.1961L31.7104 16.304C31.7104 16.173 31.6311 16.0549 31.5114 16.0048C31.3901 15.9546 31.251 15.9821 31.1589 16.0743L28.5066 18.7266L18.1237 29.1111C17.8116 29.4216 17.2714 29.4216 16.9625 29.1111C16.8072 28.9559 16.7215 28.7489 16.7215 28.5305C16.7215 28.3106 16.8072 28.1052 16.9625 27.95L29.9976 14.9149C30.0898 14.8227 30.1173 14.6836 30.0671 14.5623C30.017 14.441 29.8989 14.3634 29.7679 14.3634L24.8758 14.3618C24.423 14.3618 24.0543 13.993 24.0543 13.5402C24.0543 13.0873 24.423 12.7186 24.8758 12.7186H32.5208H32.5321C32.5854 12.7186 32.6388 12.7251 32.6922 12.7348C32.6938 12.7348 32.7245 12.7445 32.7245 12.7445C32.7262 12.7445 32.7601 12.7558 32.7617 12.7558L32.8022 12.7671C32.8151 12.7704 32.8297 12.7736 32.8458 12.7817C32.862 12.7882 32.8782 12.7979 32.8927 12.8076L32.9833 12.8561C33.0739 12.9175 33.1515 12.9935 33.2113 13.0841C33.2178 13.0938 33.2227 13.1051 33.2275 13.1148L33.2453 13.1488C33.2453 13.1504 33.2615 13.1763 33.2615 13.1779C33.2696 13.1925 33.2793 13.207 33.2857 13.2248C33.2922 13.241 33.2954 13.2572 33.3003 13.2733L33.3245 13.351C33.3278 13.3607 33.331 13.372 33.3326 13.3768C33.3439 13.4318 33.3488 13.4852 33.3488 13.5386L33.3519 21.1961Z" fill="#171717"/>
</svg>
