<svg width="35" height="30" viewBox="0 0 35 30" fill="none" xmlns="http://www.w3.org/2000/svg">
<path d="M34.4387 28.8596H33.3544V26.6359C34.1699 26.4099 34.7686 25.7181 34.7686 24.8934C34.7686 24.5681 34.2936 21.0448 32.7862 21.0448C31.3751 21.0448 30.8039 24.3436 30.8039 24.8934C30.8039 25.7181 31.4026 26.4099 32.2181 26.6359V28.8596H29.9044V19.2456C29.9044 19.0227 29.773 18.8211 29.5699 18.7294L23.4688 15.9957L23.4703 7.89674H24.7899C25.1029 7.89674 25.3565 7.64322 25.3565 7.33015V5.22868C25.3565 4.9156 25.1029 4.66209 24.7899 4.66209H23.4703V0.56746C23.4703 0.36281 23.3604 0.17344 23.1802 0.0726477C23.003 -0.0281483 22.7831 -0.0235663 22.609 0.0833383L15.1348 4.66043L5.43524 4.66195C5.12216 4.66195 4.86864 4.91547 4.86864 5.22855V7.33001C4.86864 7.64309 5.12216 7.8966 5.43524 7.8966H6.75476V28.8561L4.29591 28.8576V26.463C5.15421 26.2339 5.78648 25.513 5.78648 24.6501C5.78648 24.0759 5.19393 20.6275 3.73084 20.6275C2.26623 20.6275 1.6752 24.0759 1.6752 24.6501C1.6752 25.513 2.30748 26.2354 3.16577 26.463V28.8576H1.49653C1.18344 28.8576 0.929932 29.1112 0.929932 29.4242C0.929932 29.7373 1.18345 29.9908 1.49653 29.9908H29.2922C29.309 29.9924 29.3242 30 29.341 30C29.3578 30 29.3731 29.9908 29.3899 29.9908H34.4373C34.7504 29.9908 35.0039 29.7373 35.0039 29.4242C35.0054 29.1112 34.7519 28.8592 34.4389 28.8592L34.4387 28.8596ZM31.9386 24.892C31.9386 24.2796 32.4182 22.6104 32.7878 22.2224C33.1574 22.6103 33.6369 24.2781 33.6369 24.892C33.6369 25.2769 33.2551 25.5884 32.7878 25.5884C32.3204 25.5884 31.9386 25.2753 31.9386 24.892ZM2.80665 24.6522C2.80665 23.9818 3.33203 22.1659 3.7291 21.7963C4.12617 22.1644 4.65308 23.9802 4.65308 24.6522C4.65308 25.0722 4.23768 25.4158 3.7291 25.4158C3.22053 25.4143 2.80665 25.0722 2.80665 24.6522ZM28.7741 19.6107V28.8579H23.4718V17.2344L28.7741 19.6107ZM22.3383 1.58031V4.66378H17.303L22.3383 1.58031ZM6.00009 5.79536H24.2259V6.76516H6.00009V5.79536ZM7.88469 7.89683H22.3385V28.8563H16.106L16.1075 20.7711C16.1075 20.458 15.854 20.2045 15.5409 20.2045H9.26704C8.95396 20.2045 8.70045 20.458 8.70045 20.7711V28.8595H7.88645L7.88469 7.89683ZM12.9689 21.3364H14.9741V28.8579H12.9689V21.3364ZM11.8372 28.8595H9.83348V21.338H11.8372V28.8595Z" fill="#171717"/>
<path d="M9.72663 12.9034H20.8646C21.1777 12.9034 21.4312 12.6499 21.4312 12.3368V9.43964C21.4312 9.12656 21.1777 8.87305 20.8646 8.87305L9.72663 8.87457C9.41355 8.87457 9.16003 9.12809 9.16003 9.44117V12.3383C9.16003 12.6499 9.41203 12.9034 9.72663 12.9034ZM10.2917 10.0078H20.2982V11.7733L10.2917 11.7717V10.0078Z" fill="#171717"/>
<path d="M9.72663 18.5693H20.8646C21.1777 18.5693 21.4312 18.3158 21.4312 18.0027V15.1055C21.4312 14.7925 21.1777 14.5389 20.8646 14.5389H9.72663C9.41355 14.5389 9.16003 14.7925 9.16003 15.1055V18.0027C9.16003 18.3158 9.41203 18.5693 9.72663 18.5693ZM10.2917 15.6721H20.2982V17.4376L10.2917 17.4361V15.6721Z" fill="#171717"/>
<path d="M20.863 20.356H17.8223C17.5093 20.356 17.2557 20.6095 17.2557 20.9226V23.9648C17.2557 24.2778 17.5093 24.5314 17.8223 24.5314H20.8645C21.1776 24.5314 21.4311 24.2778 21.4311 23.9648V20.9226C21.4311 20.6095 21.1761 20.356 20.863 20.356ZM20.298 23.3982H18.3889V21.4891H20.298V23.3982Z" fill="#171717"/>
<path d="M25.028 23.4838H27.2196C27.5327 23.4838 27.7862 23.2303 27.7862 22.9172V20.7256C27.7862 20.4126 27.5327 20.1591 27.2196 20.1591H25.028C24.7149 20.1591 24.4614 20.4126 24.4614 20.7256V22.9172C24.4614 23.2303 24.7149 23.4838 25.028 23.4838ZM25.5946 21.2922H26.6545V22.3521H25.5946V21.2922Z" fill="#171717"/>
<path d="M25.028 27.806H27.2196C27.5327 27.806 27.7862 27.5524 27.7862 27.2394V25.0478C27.7862 24.7347 27.5327 24.4812 27.2196 24.4812H25.028C24.7149 24.4812 24.4614 24.7347 24.4614 25.0478V27.2394C24.4614 27.5525 24.7149 27.806 25.028 27.806ZM25.5946 25.6144H26.6545V26.6743H25.5946V25.6144Z" fill="#171717"/>
</svg>
