<svg width="48" height="48" viewBox="0 0 48 48" fill="none" xmlns="http://www.w3.org/2000/svg">
<rect width="48" height="48" rx="24" fill="white"/>
<path d="M30.2 18.48C29.56 17.3067 28.68 16.4133 27.56 15.8C26.44 15.1867 25.1333 14.88 23.64 14.88C21.9867 14.88 20.52 15.2533 19.24 16C17.96 16.7467 16.96 17.8133 16.24 19.2C15.52 20.5867 15.16 22.1867 15.16 24C15.16 25.8667 15.52 27.4933 16.24 28.88C16.9867 30.2667 18.0133 31.3333 19.32 32.08C20.6267 32.8267 22.1467 33.2 23.88 33.2C26.0133 33.2 27.76 32.64 29.12 31.52C30.48 30.3733 31.3733 28.7867 31.8 26.76H22.2V22.48H37.32V27.36C36.9467 29.3067 36.1467 31.1067 34.92 32.76C33.6933 34.4133 32.1067 35.7467 30.16 36.76C28.24 37.7467 26.08 38.24 23.68 38.24C20.9867 38.24 18.5467 37.64 16.36 36.44C14.2 35.2133 12.4933 33.52 11.24 31.36C10.0133 29.2 9.4 26.7467 9.4 24C9.4 21.2533 10.0133 18.8 11.24 16.64C12.4933 14.4533 14.2 12.76 16.36 11.56C18.5467 10.3333 20.9733 9.72 23.64 9.72C26.7867 9.72 29.52 10.4933 31.84 12.04C34.16 13.56 35.76 15.7067 36.64 18.48H30.2Z" fill="black"/>
</svg>
