<svg width="21" height="40" viewBox="0 0 21 40" fill="none" xmlns="http://www.w3.org/2000/svg">
<path fill-rule="evenodd" clip-rule="evenodd" d="M10.67 10.1889C13.3196 7.061 14.1422 6.12672 20.2214 0.105513C20.2639 0.0646698 20.2724 0.0987055 20.9505 0C20.8315 0.217831 21.0865 0.525845 20.9675 0.743677C20.6871 1.26273 13.3688 11.3185 11.7255 13.1483C11.0303 13.9209 10.099 13.6486 9.68941 13.1415C5.86885 8.42763 0.267244 0.88848 0.252018 0.859726C0.146645 0.657212 0.35059 0.3798 0.245218 0.175604C0.43047 0.301537 0.726206 0.148375 0.911421 0.274308C0.940313 0.293028 5.02939 4.32802 6.63885 5.95492C9.42952 8.77993 10.3931 9.88948 10.6719 10.1856L10.67 10.1889ZM10.67 23.373C13.3196 20.245 14.1422 19.3108 20.2214 13.2895C20.2639 13.2487 20.2724 13.2827 20.9505 13.184C20.8315 13.4036 21.0865 13.7116 20.9675 13.9294C20.6871 14.4468 13.3688 24.5043 11.7255 26.334C11.0303 27.1066 10.099 26.8344 9.68941 26.3255C5.86885 21.6117 0.267244 14.0743 0.252018 14.0451C0.146645 13.8425 0.35059 13.5634 0.245218 13.3609C0.43047 13.4869 0.726206 13.3337 0.911421 13.4596C0.940313 13.4767 5.02939 17.5134 6.63885 19.1403C9.42952 21.9653 10.3931 23.0748 10.6719 23.3709L10.67 23.373ZM10.67 36.557C13.3196 33.4291 14.1422 32.4948 20.2214 26.4736C20.2384 26.4583 20.2452 26.431 20.2673 26.4293C20.4933 26.3953 20.7245 26.4004 20.9505 26.3681C20.8315 26.5859 21.0865 26.8956 20.9675 27.1134C20.6871 27.6308 13.3688 37.6883 11.7255 39.5181C11.0303 40.2907 10.099 40.0184 9.68939 39.5096C5.86884 34.7957 0.267231 27.2565 0.252005 27.2278C0.146631 27.027 0.350576 26.7479 0.245205 26.5454C0.430456 26.6713 0.726192 26.5164 0.911407 26.6441C0.9403 26.6628 5.02938 30.6995 6.63884 32.3264C9.42951 35.1497 10.3931 36.2593 10.6718 36.5571L10.67 36.557Z" fill="url(#paint0_linear_34_51)"/>
<defs>
<linearGradient id="paint0_linear_34_51" x1="21" y1="20" x2="0.220781" y2="20" gradientUnits="userSpaceOnUse">
<stop stop-color="#EDBA0F"/>
<stop offset="1" stop-color="#FAE846"/>
</linearGradient>
</defs>
</svg>
