<svg width="28" height="30" viewBox="0 0 28 30" fill="none" xmlns="http://www.w3.org/2000/svg">
<path d="M13.932 29.8707C14.195 30.0392 14.5213 30.0392 14.7843 29.8707C23.5545 24.2834 27.9963 16.4435 27.9963 6.56183C27.9963 6.17726 27.7832 5.83114 27.4586 5.69012L14.6728 0.0643718C14.4714 -0.0253635 14.2449 -0.0253635 14.0435 0.0643718L1.2577 5.69012C0.933059 5.83113 0.719971 6.17726 0.719971 6.56183C0.719971 16.4435 5.16175 24.2834 13.932 29.8707ZM14.3581 1.94872L26.2915 7.20832C26.1034 15.9381 22.0895 22.8859 14.3581 27.9772C6.62658 22.8863 2.61269 15.9381 2.42474 7.20832L14.3581 1.94872Z" fill="#171717"/>
<path d="M12.875 18.0111C13.0348 18.1869 13.2529 18.2876 13.481 18.2876C13.7074 18.2876 13.9255 18.1869 14.0854 18.0111L18.3473 13.323C18.6819 12.9549 18.6819 12.3579 18.3473 11.9898C18.0127 11.6235 17.4716 11.6235 17.137 11.9898L13.506 16.0223L11.6048 13.9218C11.2702 13.5537 10.7291 13.5537 10.3945 13.9218C10.0599 14.2899 10.0599 14.8851 10.3945 15.2531L12.875 18.0111Z" fill="#171717"/>
</svg>
