<svg width="41" height="30" viewBox="0 0 41 30" fill="none" xmlns="http://www.w3.org/2000/svg">
<path d="M17.8513 17.5608C17.8513 12.7098 13.9046 8.76514 9.05566 8.76514C4.20468 8.76514 0.26001 12.7119 0.26001 17.5608C0.26001 22.4118 4.20677 26.3564 9.05566 26.3564C13.9066 26.3585 17.8513 22.4117 17.8513 17.5608ZM9.05566 25.5437C4.65476 25.5437 1.07435 21.9635 1.07435 17.5624C1.07435 13.1612 4.65455 9.58104 9.05566 9.58104C13.4568 9.58104 17.037 13.1612 17.037 17.5624C17.037 21.9612 13.4568 25.5437 9.05566 25.5437Z" fill="#171717"/>
<path d="M9.05517 11.252C5.57476 11.252 2.74426 14.0827 2.74426 17.5629C2.74426 21.0433 5.57502 23.8738 9.05517 23.8738C12.5356 23.8718 15.3661 21.041 15.3661 17.5608C15.3661 14.0824 12.5353 11.252 9.05517 11.252ZM9.05517 23.0579C6.02484 23.0579 3.55861 20.5917 3.55861 17.5613C3.55861 14.531 6.02484 12.0648 9.05517 12.0648C12.0855 12.0668 14.5517 14.531 14.5517 17.5613C14.5517 20.5917 12.0855 23.0579 9.05517 23.0579Z" fill="#171717"/>
<path d="M9.05514 14.8622C9.68644 14.8622 10.2017 15.3775 10.2017 16.0088C10.2017 16.2348 10.385 16.4161 10.609 16.4161C10.833 16.4161 11.0163 16.2348 11.0163 16.0088C11.0163 15.0679 10.3483 14.2798 9.46242 14.0924V13.5242C9.46242 13.2982 9.27913 13.1169 9.05511 13.1169C8.83109 13.1169 8.64781 13.2982 8.64781 13.5242V14.0924C7.76194 14.2798 7.09393 15.0679 7.09393 16.0088C7.09393 17.0902 7.97371 17.9699 9.05509 17.9699C9.68639 17.9699 10.2016 18.4831 10.2016 19.1165C10.2016 19.7478 9.68843 20.263 9.05509 20.263C8.42379 20.263 7.90854 19.7478 7.90854 19.1165C7.90854 18.8904 7.72525 18.7092 7.50124 18.7092C7.27722 18.7092 7.09393 18.8904 7.09393 19.1165C7.09393 20.0574 7.76188 20.8455 8.64781 21.0328V21.601C8.64781 21.8271 8.83109 22.0083 9.05511 22.0083C9.27913 22.0083 9.46242 21.8271 9.46242 21.601V21.0328C10.3483 20.8435 11.0163 20.0574 11.0163 19.1165C11.0163 18.0351 10.1365 17.1553 9.05514 17.1553C8.42384 17.1553 7.90859 16.6401 7.90859 16.0088C7.90859 15.3754 8.42383 14.8622 9.05514 14.8622Z" fill="#171717"/>
<path d="M33.4589 9.46794L39.1671 3.08143C39.2404 2.99997 39.2771 2.89408 39.2689 2.7841C39.2628 2.67617 39.2119 2.57434 39.1305 2.50307C36.6154 0.31789 34.5442 -0.441714 32.976 0.244588C31.2938 0.981826 30.6767 3.1792 30.4527 4.58032C28.5404 2.72302 23.3536 1.83308 22.6669 1.72104C22.504 1.69457 22.3452 1.76788 22.2576 1.90433C22.17 2.04281 22.1741 2.21795 22.2657 2.35237L27.1208 9.43331C25.5384 10.8589 19.1885 16.9746 19.5977 22.8966H17.8789C17.4146 22.8966 17.0358 23.2754 17.0358 23.7397V26.0064C17.0358 26.0186 17.0378 26.0288 17.0399 26.041H15.2335C14.7692 26.041 14.3904 26.4198 14.3904 26.8841V29.1569C14.3904 29.6232 14.7692 30 15.2335 30H23.3691C23.7887 30 24.1349 29.6905 24.2001 29.2872C25.2733 29.7536 26.4504 30 27.6438 30H32.9063C35.735 30 38.3804 28.6193 39.8079 26.3995C44.1579 19.6261 35.2909 11.1156 33.4579 9.46767L33.4589 9.46794ZM30.3308 5.88368C30.3675 6.08936 30.5548 6.23599 30.7605 6.2197C30.9682 6.20545 31.1332 6.03438 31.1393 5.82665C31.1413 5.78796 31.2819 1.87786 33.3021 0.991987C34.4995 0.466573 36.1715 1.09381 38.2813 2.85132L32.6993 9.0955H27.8748L23.4901 2.70065C26.3311 3.2709 30.0863 4.4764 30.3308 5.88368ZM17.8508 23.744C17.8508 23.7297 17.8671 23.7155 17.8793 23.7155H26.0134C26.0276 23.7155 26.0419 23.7318 26.0419 23.744V26.0107C26.0419 26.031 26.0256 26.0392 26.0134 26.0392L17.8511 26.0107L17.8508 23.744ZM23.3984 29.1634C23.3984 29.1777 23.3842 29.1919 23.3699 29.1919H15.2343C15.216 29.1919 15.2058 29.1777 15.2058 29.1634L15.2343 26.8621L23.3986 26.8906L23.3984 29.1634ZM39.1202 25.9661C37.8413 27.9558 35.4586 29.1919 32.9047 29.1919H27.6422C26.4427 29.1919 25.2636 28.917 24.2127 28.4038V26.8887C24.2127 26.8764 24.2107 26.8663 24.2087 26.854H26.015C26.4794 26.854 26.8582 26.4753 26.8582 26.0109V23.7443C26.8582 23.2779 26.4794 22.9011 26.015 22.9011H20.4147C19.9728 17.1319 26.8012 10.8121 27.8132 9.91228H32.7273C33.8657 10.9224 43.2336 19.5592 39.1202 25.9661Z" fill="#171717"/>
<path d="M30.276 17.3653C31.0316 17.3653 31.6446 17.9804 31.6446 18.7339C31.6446 18.9599 31.8279 19.1412 32.0519 19.1412C32.2759 19.1412 32.4592 18.9599 32.4592 18.7339C32.4592 17.6688 31.6934 16.7829 30.6834 16.5914V16.0416C30.6834 15.8155 30.5001 15.6343 30.2761 15.6343C30.0521 15.6343 29.8688 15.8155 29.8688 16.0416V16.5914C28.8587 16.7829 28.093 17.6688 28.093 18.7339C28.093 19.9375 29.0725 20.917 30.2761 20.917C31.0316 20.917 31.6446 21.532 31.6446 22.2855C31.6446 23.0411 31.0316 23.6541 30.2761 23.6541C29.5206 23.6541 28.9076 23.0391 28.9076 22.2855C28.9076 22.0595 28.7243 21.8782 28.5003 21.8782C28.2762 21.8782 28.093 22.0595 28.093 22.2855C28.093 23.3507 28.8587 24.2365 29.8688 24.428V24.9778C29.8688 25.2039 30.0521 25.3851 30.2761 25.3851C30.5001 25.3851 30.6834 25.2039 30.6834 24.9778V24.428C31.6935 24.2365 32.4592 23.3507 32.4592 22.2855C32.4592 21.082 31.4796 20.1024 30.276 20.1024C29.5205 20.1024 28.9075 19.4894 28.9075 18.7339C28.9055 17.9804 29.5205 17.3653 30.276 17.3653Z" fill="#171717"/>
</svg>
