<svg width="29" height="30" viewBox="0 0 29 30" fill="none" xmlns="http://www.w3.org/2000/svg">
<path d="M4.58028 24.9579L1.05588 25.6416L15.2453 29.6775L28.2764 25.4541L24.6056 24.8322L24.6149 25.3614C24.6212 25.4349 24.5756 25.5054 24.5021 25.5273L16.5704 27.9138C16.5548 27.9186 16.5386 27.9204 16.523 27.9204H16.5194L16.5191 27.9201C16.5059 27.9198 16.493 27.9177 16.4807 27.9141L12.9839 27.0453C12.9776 27.0441 12.9713 27.0426 12.965 27.0405L12.248 26.8623L10.4849 27.3396C10.3778 27.3684 10.3925 27.3669 10.2848 27.3399L6.83988 26.4729C6.75528 26.4516 6.70338 26.3655 6.72468 26.2806C6.73548 26.2371 6.76338 26.2026 6.79938 26.1816L7.50378 25.7049L4.58028 24.9579ZM22.1837 16.1346C22.265 16.146 22.3235 16.2174 22.3205 16.2978L22.3349 17.1783L24.3128 17.4009C24.3584 17.4063 24.3998 17.4285 24.4301 17.4615L24.4313 17.4621C24.4604 17.4945 24.4787 17.538 24.4796 17.5854L24.5999 24.5103L28.8383 25.2279C28.8788 25.2351 28.9157 25.2555 28.9439 25.2852C28.9733 25.3158 28.9919 25.3548 28.9958 25.3989C28.9991 25.4421 28.9883 25.4841 28.9661 25.5183C28.9433 25.554 28.9088 25.5819 28.8656 25.596L15.3089 29.9895C15.2927 29.9955 15.2756 29.9985 15.2573 29.9997C15.2372 30.0009 15.2168 29.9985 15.1964 29.9931L0.458276 25.8015C0.416276 25.7892 0.382076 25.7643 0.357176 25.731C0.331676 25.6968 0.317876 25.6542 0.320276 25.6092C0.322376 25.5651 0.339476 25.5252 0.366476 25.494L0.368276 25.4922C0.395876 25.4616 0.432776 25.4397 0.473876 25.4316L4.41828 24.6666L4.51608 15.0945C4.51548 15.0441 4.53648 14.9979 4.56888 14.9643C4.59918 14.9328 4.64118 14.9109 4.68828 14.9064L6.73698 14.7042L6.76818 6.2355C6.76758 6.1956 6.78078 6.1581 6.80268 6.1269C6.82428 6.096 6.85548 6.072 6.89178 6.0585L8.62848 5.4081V3.5433C8.62848 3.5046 8.64048 3.4671 8.66178 3.4362C8.68278 3.4056 8.71218 3.3813 8.74878 3.3669L9.72978 2.9799V2.2182C9.72978 2.1801 9.74088 2.1444 9.76068 2.1141C9.78078 2.0838 9.80898 2.0598 9.84288 2.0445L14.4509 0.021L14.4551 0.0195C14.4776 0.0072 14.5037 0 14.5313 0C14.5718 0 14.609 0.0153 14.6369 0.0405L14.6399 0.0426L17.7095 2.3298C17.7332 2.3475 17.7509 2.3691 17.7638 2.3937L17.7656 2.3988C17.7779 2.4243 17.7851 2.4519 17.7851 2.481L17.7836 3.6762L20.8193 5.5224C20.8466 5.5386 20.8697 5.562 20.8862 5.5908C20.9006 5.6178 20.9093 5.6481 20.9096 5.6799L21.0401 15.9729L22.1837 16.1346ZM22.0064 16.4295L19.3994 16.0605L19.5365 26.6904L22.163 25.8999L22.0214 17.3409C22.0196 17.3292 22.0196 17.3172 22.0208 17.3049L22.0064 16.4295ZM19.3952 15.7401L20.7233 15.9279L20.5943 5.7561L16.2422 3.1095L16.433 13.7868L19.2263 14.3514C19.2701 14.3601 19.3082 14.3832 19.3352 14.4156C19.3625 14.4489 19.3796 14.4906 19.3796 14.5371L19.3952 15.7401ZM22.3403 17.4978L22.4777 25.8054L24.2966 25.2579L24.1652 17.703L22.3403 17.4978ZM16.3634 27.5586L15.9245 3.051L13.1717 4.1085V26.7657L16.3634 27.5586ZM12.8543 26.6868V2.0883L8.94588 3.6297V24.8994L12.2834 25.6284C12.362 25.6452 12.4142 25.7178 12.4079 25.7961L12.4049 26.5749L12.8543 26.6868ZM7.85508 25.467L8.62848 24.9435V5.7459L7.08408 6.324L7.05258 14.8443V14.8485V14.8524L7.01388 25.2522L7.85508 25.467ZM6.69828 25.1715L6.73578 15.0222L4.83108 15.21L4.73448 24.6696L6.69828 25.1715ZM7.98378 25.7616C7.97688 25.7673 7.96968 25.7721 7.96188 25.7763L7.25988 26.2518L10.3508 27.0297L11.8808 25.8651L8.81898 25.1961L7.98378 25.7616ZM9.67367 23.6805L10.2686 23.7888V24.9075L9.67367 24.7872V23.6805ZM10.4711 23.8257L11.066 23.9337V25.059L10.4711 24.9453V23.8257ZM11.2607 23.9691L11.8709 24.0801V25.2276L11.2607 25.1058V23.9691ZM9.67367 22.7424C9.87197 22.773 10.0703 22.8036 10.2686 22.8342C10.2686 23.0766 10.2686 23.319 10.2686 23.5614C10.0703 23.5311 9.87197 23.5005 9.67367 23.4699C9.67367 23.2275 9.67367 22.9848 9.67367 22.7424ZM10.4711 22.8654C10.6694 22.8963 10.8677 22.9269 11.066 22.9575C11.066 23.1996 11.066 23.4423 11.066 23.6847C10.8677 23.6541 10.6694 23.6235 10.4711 23.5929C10.4711 23.3505 10.4711 23.1081 10.4711 22.8654ZM11.2607 22.9875C11.4641 23.019 11.6675 23.0502 11.8709 23.0817C11.8709 23.3241 11.8709 23.5665 11.8709 23.8089C11.6675 23.7777 11.4641 23.7462 11.2607 23.715C11.2607 23.4723 11.2607 23.2299 11.2607 22.9875ZM9.67367 21.8043C9.87197 21.8295 10.0703 21.8547 10.2686 21.8799C10.2686 22.1223 10.2686 22.3647 10.2686 22.6071C10.0703 22.5819 9.87197 22.557 9.67367 22.5318C9.67367 22.2894 9.67367 22.047 9.67367 21.8043ZM10.4711 21.9054C10.6694 21.9306 10.8677 21.9558 11.066 21.981C11.066 22.2234 11.066 22.4658 11.066 22.7082C10.8677 22.683 10.6694 22.6581 10.4711 22.6329C10.4711 22.3905 10.4711 22.1478 10.4711 21.9054ZM11.2607 22.0059C11.4641 22.0317 11.6675 22.0572 11.8709 22.0833C11.8709 22.3254 11.8709 22.5681 11.8709 22.8105C11.6675 22.7847 11.4641 22.7589 11.2607 22.7331C11.2607 22.4907 11.2607 22.2483 11.2607 22.0059ZM9.67367 20.8665C9.87197 20.8863 10.0703 20.9058 10.2686 20.9256C10.2686 21.168 10.2686 21.4104 10.2686 21.6528C10.0703 21.6333 9.87197 21.6135 9.67367 21.5937C9.67367 21.3513 9.67367 21.1089 9.67367 20.8665ZM10.4711 20.9457C10.6694 20.9655 10.8677 20.9853 11.066 21.0048C11.066 21.2472 11.066 21.4896 11.066 21.732C10.8677 21.7125 10.6694 21.6927 10.4711 21.6732C10.4711 21.4308 10.4711 21.1881 10.4711 20.9457ZM11.2607 21.0243C11.4641 21.0444 11.6675 21.0648 11.8709 21.0849C11.8709 21.3273 11.8709 21.5697 11.8709 21.8121C11.6675 21.792 11.4641 21.7719 11.2607 21.7518C11.2607 21.5091 11.2607 21.2667 11.2607 21.0243ZM9.67367 19.9284C9.87197 19.9428 10.0703 19.9569 10.2686 19.9713C10.2686 20.2134 10.2686 20.4561 10.2686 20.6985C10.0703 20.6841 9.87197 20.67 9.67367 20.6559C9.67367 20.4132 9.67367 20.1708 9.67367 19.9284ZM10.4711 19.986C10.6694 20.0001 10.8677 20.0145 11.066 20.0286C11.066 20.271 11.066 20.5134 11.066 20.7558C10.8677 20.7417 10.6694 20.7273 10.4711 20.7132C10.4711 20.4708 10.4711 20.2284 10.4711 19.986ZM11.2607 20.0424C11.4641 20.0571 11.6675 20.0718 11.8709 20.0865C11.8709 20.3289 11.8709 20.5713 11.8709 20.8137C11.6675 20.799 11.4641 20.7846 11.2607 20.7699C11.2607 20.5275 11.2607 20.2851 11.2607 20.0424ZM9.67367 18.9903C9.87197 18.9993 10.0703 19.008 10.2686 19.0167C10.2686 19.2591 10.2686 19.5015 10.2686 19.7439C10.0703 19.7352 9.87197 19.7265 9.67367 19.7178C9.67367 19.4754 9.67367 19.2327 9.67367 18.9903ZM10.4711 19.0257C10.6694 19.0347 10.8677 19.0434 11.066 19.0524C11.066 19.2945 11.066 19.5369 11.066 19.7796C10.8677 19.7706 10.6694 19.7619 10.4711 19.7532C10.4711 19.5108 10.4711 19.2681 10.4711 19.0257ZM11.2607 19.0608C11.4641 19.0698 11.6675 19.0788 11.8709 19.0881C11.8709 19.3305 11.8709 19.5726 11.8709 19.8153C11.6675 19.8063 11.4641 19.7973 11.2607 19.7883C11.2607 19.5459 11.2607 19.3032 11.2607 19.0608ZM9.67367 18.0525C9.87197 18.0558 10.0703 18.0591 10.2686 18.0624C10.2686 18.3048 10.2686 18.5472 10.2686 18.7896C10.0703 18.7863 9.87197 18.783 9.67367 18.7797C9.67367 18.5373 9.67367 18.2949 9.67367 18.0525ZM10.4711 18.0657C10.6694 18.0693 10.8677 18.0726 11.066 18.0759C11.066 18.3183 11.066 18.5607 11.066 18.8031C10.8677 18.7998 10.6694 18.7965 10.4711 18.7932C10.4711 18.5508 10.4711 18.3084 10.4711 18.0657ZM11.2607 18.0792C11.4641 18.0825 11.6675 18.0861 11.8709 18.0897C11.8709 18.3318 11.8709 18.5742 11.8709 18.8166C11.6675 18.8133 11.4641 18.81 11.2607 18.8064C11.2607 18.564 11.2607 18.3216 11.2607 18.0792ZM9.67367 17.1141C9.87197 17.112 10.0703 17.1102 10.2686 17.1081C10.2686 17.3502 10.2686 17.5929 10.2686 17.835C10.0703 17.8374 9.87197 17.8395 9.67367 17.8416C9.67367 17.5992 9.67367 17.3568 9.67367 17.1141ZM10.4711 17.106C10.6694 17.1039 10.8677 17.1018 11.066 17.0997C11.066 17.3421 11.066 17.5845 11.066 17.8269C10.8677 17.829 10.6694 17.8311 10.4711 17.8332C10.4711 17.5908 10.4711 17.3484 10.4711 17.106ZM11.2607 17.0976C11.4641 17.0955 11.6675 17.0931 11.8709 17.091C11.8709 17.3334 11.8709 17.5758 11.8709 17.8182C11.6675 17.8206 11.4641 17.8227 11.2607 17.8251C11.2607 17.5824 11.2607 17.34 11.2607 17.0976ZM9.67367 16.1763C9.87197 16.1688 10.0703 16.1613 10.2686 16.1538C10.2686 16.3959 10.2686 16.6386 10.2686 16.881C10.0703 16.8885 9.87197 16.896 9.67367 16.9038C9.67367 16.6611 9.67367 16.4187 9.67367 16.1763ZM10.4711 16.146C10.6694 16.1385 10.8677 16.131 11.066 16.1235C11.066 16.3656 11.066 16.608 11.066 16.8504C10.8677 16.8582 10.6694 16.8657 10.4711 16.8735C10.4711 16.6311 10.4711 16.3884 10.4711 16.146ZM11.2607 16.116C11.4641 16.1082 11.6675 16.1004 11.8709 16.0929C11.8709 16.3353 11.8709 16.5777 11.8709 16.8198C11.6675 16.8279 11.4641 16.8357 11.2607 16.8435C11.2607 16.6011 11.2607 16.3584 11.2607 16.116ZM9.67367 15.2382C9.87197 15.2253 10.0703 15.2124 10.2686 15.1992C10.2686 15.4416 10.2686 15.684 10.2686 15.9264C10.0703 15.9396 9.87197 15.9528 9.67367 15.9657C9.67367 15.7233 9.67367 15.4806 9.67367 15.2382ZM10.4711 15.186C10.6694 15.1731 10.8677 15.1599 11.066 15.147C11.066 15.3894 11.066 15.6318 11.066 15.8742C10.8677 15.8874 10.6694 15.9003 10.4711 15.9135C10.4711 15.6711 10.4711 15.4284 10.4711 15.186ZM11.2607 15.1344C11.4641 15.1209 11.6675 15.1077 11.8709 15.0942C11.8709 15.3366 11.8709 15.579 11.8709 15.8214C11.6675 15.8349 11.4641 15.8484 11.2607 15.8616C11.2607 15.6192 11.2607 15.3765 11.2607 15.1344ZM9.67367 14.3004C9.87197 14.2818 10.0703 14.2635 10.2686 14.2449C10.2686 14.4873 10.2686 14.7297 10.2686 14.9721C10.0703 14.9907 9.87197 15.0093 9.67367 15.0276C9.67367 14.7852 9.67367 14.5428 9.67367 14.3004ZM10.4711 14.226C10.6694 14.2077 10.8677 14.1891 11.066 14.1708C11.066 14.4132 11.066 14.6556 11.066 14.898C10.8677 14.9166 10.6694 14.9349 10.4711 14.9535C10.4711 14.7111 10.4711 14.4687 10.4711 14.226ZM11.2607 14.1525C11.4641 14.1336 11.6675 14.1147 11.8709 14.0958C11.8709 14.3382 11.8709 14.5806 11.8709 14.823C11.6675 14.8419 11.4641 14.8611 11.2607 14.88C11.2607 14.6376 11.2607 14.3949 11.2607 14.1525ZM9.67367 13.3623C9.87197 13.3383 10.0703 13.3143 10.2686 13.2906C10.2686 13.533 10.2686 13.7754 10.2686 14.0175C10.0703 14.0418 9.87197 14.0658 9.67367 14.0898C9.67367 13.8471 9.67367 13.6047 9.67367 13.3623ZM10.4711 13.266C10.6694 13.2423 10.8677 13.2183 11.066 13.1943C11.066 13.4367 11.066 13.6791 11.066 13.9215C10.8677 13.9455 10.6694 13.9695 10.4711 13.9935C10.4711 13.7511 10.4711 13.5087 10.4711 13.266ZM11.2607 13.1709C11.4641 13.1463 11.6675 13.122 11.8709 13.0974C11.8709 13.3398 11.8709 13.5822 11.8709 13.8246C11.6675 13.8492 11.4641 13.8738 11.2607 13.8984C11.2607 13.656 11.2607 13.4133 11.2607 13.1709ZM9.67367 12.4242C9.87197 12.3948 10.0703 12.3654 10.2686 12.336C10.2686 12.5784 10.2686 12.8211 10.2686 13.0632C10.0703 13.0926 9.87197 13.1223 9.67367 13.1517C9.67367 12.9093 9.67367 12.6666 9.67367 12.4242ZM10.4711 12.3063C10.6694 12.2769 10.8677 12.2475 11.066 12.2181C11.066 12.4605 11.066 12.7029 11.066 12.9453C10.8677 12.9747 10.6694 13.0041 10.4711 13.0335C10.4711 12.7911 10.4711 12.5487 10.4711 12.3063ZM11.2607 12.1893C11.4641 12.1593 11.6675 12.129 11.8709 12.099C11.8709 12.3414 11.8709 12.5838 11.8709 12.8262C11.6675 12.8562 11.4641 12.8865 11.2607 12.9168C11.2607 12.6744 11.2607 12.4317 11.2607 12.1893ZM9.67367 11.4861C9.87197 11.4513 10.0703 11.4165 10.2686 11.3817C10.2686 11.6241 10.2686 11.8665 10.2686 12.1089C10.0703 12.1437 9.87197 12.1788 9.67367 12.2136C9.67367 11.9712 9.67367 11.7288 9.67367 11.4861ZM10.4711 11.3463C10.6694 11.3115 10.8677 11.2767 11.066 11.2419C11.066 11.4843 11.066 11.7267 11.066 11.9688C10.8677 12.0039 10.6694 12.0387 10.4711 12.0738C10.4711 11.8311 10.4711 11.5887 10.4711 11.3463ZM11.2607 11.2074C11.4641 11.172 11.6675 11.1363 11.8709 11.1006C11.8709 11.343 11.8709 11.5851 11.8709 11.8278C11.6675 11.8635 11.4641 11.8992 11.2607 11.9349C11.2607 11.6925 11.2607 11.4501 11.2607 11.2074ZM9.67367 10.5483C9.87197 10.5081 10.0703 10.4676 10.2686 10.4274C10.2686 10.6698 10.2686 10.9122 10.2686 11.1546C10.0703 11.1951 9.87197 11.2353 9.67367 11.2758C9.67367 11.0331 9.67367 10.7907 9.67367 10.5483ZM10.4711 10.3863C10.6694 10.3461 10.8677 10.3056 11.066 10.2654C11.066 10.5078 11.066 10.7502 11.066 10.9926C10.8677 11.0331 10.6694 11.0733 10.4711 11.1138C10.4711 10.8714 10.4711 10.6287 10.4711 10.3863ZM11.2607 10.2261C11.4641 10.1847 11.6675 10.1433 11.8709 10.1022C11.8709 10.3446 11.8709 10.587 11.8709 10.8294C11.6675 10.8708 11.4641 10.9122 11.2607 10.9533C11.2607 10.7109 11.2607 10.4685 11.2607 10.2261ZM9.67367 9.6102C9.87197 9.5646 10.0703 9.5187 10.2686 9.4731C10.2686 9.7155 10.2686 9.9579 10.2686 10.2C10.0703 10.2459 9.87197 10.2918 9.67367 10.3374C9.67367 10.095 9.67367 9.8526 9.67367 9.6102ZM10.4711 9.4263C10.6694 9.3807 10.8677 9.3348 11.066 9.2892C11.066 9.5316 11.066 9.774 11.066 10.0164C10.8677 10.0623 10.6694 10.1082 10.4711 10.1538C10.4711 9.9114 10.4711 9.669 10.4711 9.4263ZM11.2607 9.2445C11.4641 9.1974 11.6675 9.1506 11.8709 9.1038C11.8709 9.3462 11.8709 9.5886 11.8709 9.831C11.6675 9.8778 11.4641 9.9249 11.2607 9.9717C11.2607 9.7293 11.2607 9.4869 11.2607 9.2445ZM9.67367 8.6721C9.87197 8.6208 10.0703 8.5698 10.2686 8.5185C10.2686 8.7609 10.2686 9.0036 10.2686 9.2457C10.0703 9.297 9.87197 9.3483 9.67367 9.3996C9.67367 9.1572 9.67367 8.9145 9.67367 8.6721ZM10.4711 8.4663C10.6694 8.4153 10.8677 8.364 11.066 8.3127C11.066 8.5554 11.066 8.7978 11.066 9.0399C10.8677 9.0912 10.6694 9.1428 10.4711 9.1938C10.4711 8.9514 10.4711 8.709 10.4711 8.4663ZM11.2607 8.2626C11.4641 8.2101 11.6675 8.1576 11.8709 8.1054C11.8709 8.3478 11.8709 8.5902 11.8709 8.8323C11.6675 8.8851 11.4641 8.9376 11.2607 8.9901C11.2607 8.7477 11.2607 8.505 11.2607 8.2626ZM9.67367 7.734C9.87197 7.6776 10.0703 7.6209 10.2686 7.5642C10.2686 7.8066 10.2686 8.049 10.2686 8.2914C10.0703 8.3481 9.87197 8.4048 9.67367 8.4615C9.67367 8.2191 9.67367 7.9767 9.67367 7.734ZM10.4711 7.5063C10.6694 7.4499 10.8677 7.3932 11.066 7.3365C11.066 7.5789 11.066 7.8213 11.066 8.0637C10.8677 8.1204 10.6694 8.1771 10.4711 8.2338C10.4711 7.9914 10.4711 7.749 10.4711 7.5063ZM11.2607 7.281C11.4641 7.2231 11.6675 7.1649 11.8709 7.1067C11.8709 7.3494 11.8709 7.5915 11.8709 7.8339C11.6675 7.8921 11.4641 7.9503 11.2607 8.0085C11.2607 7.7661 11.2607 7.5234 11.2607 7.281ZM9.67367 6.7962C9.87197 6.7341 10.0703 6.672 10.2686 6.6099C10.2686 6.8523 10.2686 7.0947 10.2686 7.3371C10.0703 7.3992 9.87197 7.4613 9.67367 7.5234C9.67367 7.2813 9.67367 7.0386 9.67367 6.7962ZM10.4711 6.5466C10.6694 6.4845 10.8677 6.4224 11.066 6.3603C11.066 6.6027 11.066 6.8451 11.066 7.0875C10.8677 7.1496 10.6694 7.2117 10.4711 7.2741C10.4711 7.0314 10.4711 6.789 10.4711 6.5466ZM11.2607 6.2991C11.4641 6.2358 11.6675 6.1719 11.8709 6.1083C11.8709 6.3507 11.8709 6.5931 11.8709 6.8355C11.6675 6.8991 11.4641 6.963 11.2607 7.0266C11.2607 6.7842 11.2607 6.5418 11.2607 6.2991ZM9.67367 5.8581C9.87197 5.7906 10.0703 5.7231 10.2686 5.6556C10.2686 5.898 10.2686 6.1404 10.2686 6.3825C10.0703 6.4503 9.87197 6.5178 9.67367 6.5853C9.67367 6.3429 9.67367 6.1005 9.67367 5.8581ZM10.4711 5.5866C10.6694 5.5191 10.8677 5.4516 11.066 5.3841C11.066 5.6265 11.066 5.8689 11.066 6.1113C10.8677 6.1788 10.6694 6.2466 10.4711 6.3141C10.4711 6.0717 10.4711 5.8293 10.4711 5.5866ZM11.2607 5.3178C11.4641 5.2485 11.6675 5.1792 11.8709 5.1099C11.8709 5.3526 11.8709 5.595 11.8709 5.8371C11.6675 5.9067 11.4641 5.976 11.2607 6.0453C11.2607 5.8026 11.2607 5.5602 11.2607 5.3178ZM9.67367 4.92C9.87197 4.8471 10.0703 4.7739 10.2686 4.701C10.2686 4.9434 10.2686 5.1858 10.2686 5.4282C10.0703 5.5014 9.87197 5.5746 9.67367 5.6475C9.67367 5.4051 9.67367 5.1624 9.67367 4.92ZM10.4711 4.6266C10.6694 4.5537 10.8677 4.4808 11.066 4.4079C11.066 4.65 11.066 4.8927 11.066 5.1348C10.8677 5.208 10.6694 5.2809 10.4711 5.3541C10.4711 5.1117 10.4711 4.8693 10.4711 4.6266ZM11.2607 4.3359C11.4641 4.2612 11.6675 4.1865 11.8709 4.1115C11.8709 4.3539 11.8709 4.5966 11.8709 4.8387C11.6675 4.9137 11.4641 4.9887 11.2607 5.0634C11.2607 4.821 11.2607 4.5786 11.2607 4.3359ZM9.67367 3.9819L10.2686 3.7467V4.4739L9.67367 4.7094V3.9819ZM10.4711 3.6666L11.066 3.4314V4.1586L10.4711 4.3941V3.6666ZM11.2607 3.3543L11.8709 3.1131V3.8403L11.2607 4.0818V3.3543ZM19.2212 26.7852L19.0643 14.6412L16.439 14.1108L16.6793 27.5499L19.2212 26.7852ZM10.0472 2.8548L12.9122 1.7247C12.9407 1.7136 12.9713 1.7094 13.0016 1.7127C13.0325 1.716 13.0613 1.7265 13.0877 1.7445C13.1141 1.7619 13.1357 1.7856 13.1501 1.8138C13.1642 1.8408 13.1717 1.8705 13.1717 1.9017V3.7701L14.3723 3.3087V0.4011L10.0472 2.3007V2.8548ZM16.0223 2.6748C16.0808 2.6526 16.1441 2.6673 16.187 2.7072C16.1951 2.7108 16.2029 2.715 16.2107 2.7195L17.4674 3.4836L17.468 2.5446L14.6897 0.4743V3.1869L16.0223 2.6748Z" fill="#171717"/>
</svg>
